<?xml version="1.0" encoding="UTF-8" standalone="no"?>
<!-- Created with Inkscape (http://www.inkscape.org/) -->

<svg
   width="84.354675mm"
   height="125.3233mm"
   viewBox="0 0 84.354675 125.3233"
   version="1.1"
   id="svg1"
   inkscape:version="1.4.2 (f4327f4, 2025-05-13)"
   sodipodi:docname="persona_logo.svg"
   xmlns:inkscape="http://www.inkscape.org/namespaces/inkscape"
   xmlns:sodipodi="http://sodipodi.sourceforge.net/DTD/sodipodi-0.dtd"
   xmlns="http://www.w3.org/2000/svg"
   xmlns:svg="http://www.w3.org/2000/svg">
  <sodipodi:namedview
     id="namedview1"
     pagecolor="#ffffff"
     bordercolor="#000000"
     borderopacity="0.25"
     inkscape:showpageshadow="2"
     inkscape:pageopacity="0.0"
     inkscape:pagecheckerboard="0"
     inkscape:deskcolor="#d1d1d1"
     inkscape:document-units="mm"
     inkscape:zoom="4.0668163"
     inkscape:cx="103.64373"
     inkscape:cy="430.92676"
     inkscape:window-width="1920"
     inkscape:window-height="1009"
     inkscape:window-x="-8"
     inkscape:window-y="-8"
     inkscape:window-maximized="1"
     inkscape:current-layer="g1"
     showguides="true">
    <sodipodi:guide
       position="0.0071850752,194.8545"
       orientation="1,0"
       id="guide1"
       inkscape:locked="false" />
    <sodipodi:guide
       position="84.356282,259.26299"
       orientation="1,0"
       id="guide2"
       inkscape:locked="false" />
  </sodipodi:namedview>
  <defs
     id="defs1">
    <inkscape:path-effect
       effect="fillet_chamfer"
       id="path-effect1"
       is_visible="true"
       lpeversion="1"
       nodesatellites_param="F,1,0,1,0,0.037916257,0,1 @ F,1,0,1,0,0.14320665,0,1 @ F,1,0,1,0,0.08,0,1 @ F,1,0,1,0,0.08,0,1 @ F,1,0,1,0,0.08,0,1 @ F,1,0,1,0,0.08,0,1 @ F,1,0,1,0,0.08,0,1 @ F,1,0,1,0,0.08,0,1 @ F,1,0,1,0,0.08,0,1 @ F,1,0,1,0,0.08,0,1 @ F,1,0,1,0,0.08,0,1 @ F,1,0,1,0,0.08,0,1 @ F,1,0,1,0,0.08,0,1 @ F,1,0,1,0,0.22206634,0,1 @ F,1,0,1,0,0.08,0,1 | F,1,0,1,0,0.29368935,0,1 @ F,1,0,1,0,0.08,0,1 @ F,1,0,1,0,0.08,0,1 @ F,1,0,1,0,0.08,0,1 @ F,1,0,1,0,0.08,0,1 @ F,1,0,1,0,0.08,0,1 @ F,1,0,1,0,0.08,0,1 @ F,1,0,1,0,0,0,1 @ F,1,0,1,0,0.56913486,0,1 @ F,1,0,1,0,0.94438651,0,1 @ F,1,0,1,0,0.08,0,1 @ F,1,0,1,0,0.08,0,1 @ F,1,0,1,0,0.08,0,1 | F,1,0,1,0,0.08,0,1 @ F,1,0,1,0,0.08,0,1 @ F,1,0,1,0,0.08,0,1 @ F,1,0,1,0,0.08,0,1 @ F,1,0,1,0,0.08,0,1 @ F,1,0,1,0,0.08,0,1 @ F,1,0,1,0,0.08,0,1 @ F,1,0,1,0,0.08,0,1 @ F,1,0,1,0,0.08,0,1 @ F,1,0,1,0,0.08,0,1 @ F,1,0,1,0,0.08,0,1 @ F,1,0,1,0,0.08,0,1 @ F,1,0,1,0,0.08,0,1 @ F,1,0,1,0,0.08,0,1 @ F,1,0,1,0,0.08,0,1 @ F,1,0,1,0,0.08,0,1 @ F,1,0,1,0,0.08,0,1 @ F,1,0,1,0,0.08,0,1 @ F,1,0,1,0,0.08,0,1 @ F,1,0,1,0,0.24073781,0,1 @ F,1,0,1,0,0.08,0,1 @ F,1,0,1,0,0.08,0,1 | F,1,0,1,0,0.08,0,1 @ F,1,0,1,0,0.08,0,1 @ F,1,0,1,0,0.08,0,1 @ F,1,0,1,0,0.08,0,1 | F,1,0,1,0,0.08,0,1 @ F,1,0,1,0,0.38322111,0,1 @ F,1,0,1,0,0.08,0,1 @ F,1,0,1,0,0.08,0,1 @ F,1,0,1,0,0.08,0,1 @ F,1,0,1,0,0.08,0,1 @ F,1,0,1,0,0.08,0,1 @ F,1,0,1,0,0.08,0,1 @ F,1,0,1,0,0.08,0,1 @ F,1,0,1,0,0.08,0,1 @ F,1,0,1,0,0.40879458,0,1 @ F,1,0,1,0,0.08,0,1 @ F,1,0,1,0,0.08,0,1 @ F,1,0,1,0,0.08,0,1 @ F,1,0,1,0,0.08,0,1 @ F,1,0,1,0,0.08,0,1 @ F,1,0,1,0,0.08,0,1 | F,1,0,1,0,0.08,0,1 @ F,1,0,1,0,0.08,0,1 @ F,1,0,1,0,0.08,0,1 @ F,1,0,1,0,0.39628322,0,1 @ F,1,0,1,0,0.08,0,1 @ F,1,0,1,0,0.08,0,1 @ F,1,0,1,0,0.08,0,1 @ F,1,0,1,0,0.08,0,1 @ F,1,0,1,0,0.08,0,1 @ F,1,0,1,0,0.08,0,1 @ F,1,0,1,0,0.08,0,1 @ F,1,0,1,0,0.08,0,1 @ F,1,0,1,0,0.08,0,1 @ F,1,0,1,0,0.08,0,1 @ F,1,0,1,0,0.08,0,1 @ F,1,0,1,0,0.08,0,1 @ F,1,0,1,0,0.08,0,1 @ F,1,0,1,0,0.08,0,1 @ F,1,0,1,0,0.08,0,1 @ F,1,0,1,0,0.08,0,1 @ F,1,0,1,0,0.65346445,0,1 @ F,1,0,1,0,0.08,0,1 @ F,1,0,1,0,0.08,0,1 @ F,1,0,1,0,0.08,0,1 @ F,1,0,1,0,0.08,0,1 @ F,1,0,1,0,0.08,0,1 @ F,1,0,1,0,0.08,0,1 @ F,1,0,1,0,0.08,0,1 @ F,1,0,1,0,0.08,0,1 @ F,1,0,1,0,0.08,0,1 @ F,1,0,1,0,0.08,0,1 @ F,1,0,1,0,0.08,0,1 | F,1,0,1,0,0.08,0,1 @ F,1,0,1,0,0.08,0,1 @ F,1,0,1,0,0.08,0,1 @ F,1,0,1,0,0.08,0,1 @ F,1,0,1,0,0.08,0,1 @ F,1,0,1,0,0.08,0,1 @ F,1,0,1,0,0.08,0,1 @ F,1,0,1,0,0.08,0,1 @ F,1,0,1,0,0.08,0,1 @ F,1,0,1,0,0.08,0,1 @ F,1,0,1,0,0.08,0,1 @ F,1,0,1,0,0.08,0,1 | F,1,0,1,0,0.08,0,1 @ F,1,0,1,0,0.08,0,1 @ F,1,0,1,0,0.08,0,1 @ F,1,0,1,0,0.08,0,1 @ F,1,0,1,0,0.08,0,1 @ F,1,0,1,0,0.08,0,1 @ F,1,0,1,0,0.08,0,1 @ F,1,0,1,0,0.08,0,1 @ F,1,0,1,0,0.08,0,1 | F,1,0,1,0,0.13216694,0,1 @ F,1,0,1,0,0.08,0,1 @ F,1,0,1,0,0.08,0,1 @ F,1,0,1,0,0.08,0,1 @ F,1,0,1,0,0.08,0,1 @ F,1,0,1,0,0.08,0,1 @ F,1,0,1,0,0.08,0,1 @ F,1,0,1,0,0.08,0,1 @ F,1,0,1,0,0.08,0,1 @ F,1,0,1,0,0.08,0,1 @ F,1,0,1,0,0.08,0,1 @ F,1,0,1,0,0.08,0,1 @ F,1,0,1,0,0.08,0,1 @ F,1,0,1,0,0.08,0,1 @ F,1,0,1,0,0.08,0,1 @ F,1,0,1,0,0.08,0,1 @ F,1,0,1,0,0.08,0,1 @ F,1,0,1,0,0.08,0,1 @ F,1,0,1,0,0.08,0,1 @ F,1,0,1,0,0.08,0,1 | F,1,0,1,0,0.08,0,1 @ F,1,0,1,0,0.08,0,1 @ F,1,0,1,0,0.17657789,0,1 @ F,1,0,1,0,0.08,0,1 @ F,1,0,1,0,0.08,0,1 @ F,1,0,1,0,0.08,0,1 | F,1,0,1,0,0.08,0,1 @ F,1,0,1,0,0.08,0,1 @ F,1,0,1,0,0.08,0,1 @ F,1,0,1,0,0.08,0,1 @ F,1,0,1,0,0.08,0,1 @ F,1,0,1,0,0.08,0,1 @ F,1,0,1,0,0.08,0,1 @ F,1,0,1,0,0.08,0,1 @ F,1,0,1,0,0.08,0,1 @ F,1,0,1,0,0.08,0,1 @ F,1,0,1,0,0.08,0,1 @ F,1,0,1,0,0.08,0,1 @ F,1,0,1,0,0.08,0,1 @ F,1,0,1,0,0.08,0,1 @ F,1,0,1,0,0.33254078,0,1 @ F,1,0,1,0,0.08,0,1 @ F,1,0,1,0,0.08,0,1 @ F,1,0,1,0,0.08,0,1 @ F,1,0,1,0,0.08,0,1 @ F,1,0,1,0,0.08,0,1 @ F,1,0,1,0,0.08,0,1 @ F,1,0,1,0,0.08,0,1 @ F,1,0,1,0,0.15588821,0,1 @ F,1,0,1,0,0.08,0,1 @ F,1,0,1,0,0.08,0,1 @ F,1,0,1,0,0.08,0,1 @ F,1,0,1,0,0.08,0,1 | F,1,0,1,0,0.08,0,1 @ F,1,0,1,0,0.08,0,1 @ F,1,0,1,0,0.08,0,1 @ F,1,0,1,0,0.08,0,1 @ F,1,0,1,0,0.08,0,1 @ F,1,0,1,0,0.08,0,1 @ F,1,0,1,0,0.08,0,1 @ F,1,0,1,0,0.08,0,1 @ F,1,0,1,0,0.08,0,1 @ F,1,0,1,0,0.08,0,1 @ F,1,0,1,0,0.08,0,1 @ F,1,0,1,0,0.08,0,1 @ F,1,0,1,0,0.08,0,1 @ F,1,0,1,0,0.08,0,1 @ F,1,0,1,0,0.08,0,1"
       radius="8"
       unit="px"
       method="bezier"
       mode="F"
       chamfer_steps="1"
       flexible="true"
       use_knot_distance="true"
       apply_no_radius="true"
       apply_with_radius="true"
       only_selected="false"
       hide_knots="false" />
    <rect
       x="181.52271"
       y="706.61713"
       width="593.25238"
       height="168.30841"
       id="rect1" />
    <rect
       x="181.52271"
       y="706.61713"
       width="593.25238"
       height="168.30841"
       id="rect1-4" />
    <rect
       x="181.52271"
       y="706.61713"
       width="593.25238"
       height="168.30841"
       id="rect1-4-5" />
  </defs>
  <g
     inkscape:label="Layer 1"
     inkscape:groupmode="layer"
     id="layer1"
     transform="translate(-55.715918,-67.853877)"
     style="display:inline;opacity:1">
    <g
       id="g1"
       style="display:inline">
      <path
         style="display:inline;fill:#111111;fill-opacity:1;stroke-width:0.264583"
         d="m 55.71955,171.02611 c -0.466588,-42.39253 -0.193219,-47.34879 -0.07402,-68.88336 0.01771,-3.199316 2.558405,-9.269941 5.972555,-14.186237 3.41415,-4.916296 4.16274,-5.984308 6.806725,-8.432103 2.643985,-2.447795 4.335387,-3.537355 5.963527,-4.619738 1.62814,-1.082383 2.989289,-1.913546 3.409077,-2.102495 0.754856,-0.339773 0.788591,-0.31709 3.069749,2.063818 1.268571,1.324049 2.868189,3.308578 3.554703,4.410062 0.686541,1.101482 1.63965,2.931853 2.118043,4.06749 0.478393,1.135637 1.095137,2.898232 1.370568,3.916878 0.418359,1.547252 0.4682,2.788466 0.500777,7.540625 0.225282,3.153724 -0.385666,6.54624 0.557894,9.62332 1.293724,3.53741 1.691198,3.58581 3.673807,5.94425 2.017939,2.40046 0.917358,4.11181 -0.941198,4.71994 -0.763963,0.24997 -1.231851,0.29643 -1.730783,0.9022 -0.524235,0.63649 -0.553109,1.28981 -0.553109,1.70466 0,1.40157 0.984729,1.55259 1.095663,3.23127 0.0822,1.24392 -0.900442,1.86819 -1.844821,2.54718 1.386753,1.11131 0.795297,3.18867 -0.831289,4.09692 -0.564859,0.27101 -0.882619,0.55761 -1.063991,0.79592 -0.181372,0.23831 -0.332237,0.96908 -0.335306,1.62392 -0.0032,0.65484 0.243788,1.28768 0.258343,2.03404 0.204688,1.48932 -0.437221,3.36793 -1.509434,4.40228 -1.508826,1.45555 -3.428023,1.80092 -5.852456,1.82293 -1.174432,-0.009 -1.291603,0.0433 -2.963955,-0.20265 -1.964055,-0.28882 -3.836934,-0.39705 -5.289603,-0.30567 -1.236927,0.0778 -2.802466,0.33731 -3.478979,0.57665 -0.676514,0.23935 -1.43727,0.66419 -1.690556,0.94408 -0.445214,0.49193 -0.355785,0.61283 2.68523,3.62981 5.837378,5.79129 14.343749,10.37537 16.633984,9.81032 0.578785,-0.16091 0.750067,-0.87111 1.213961,-2.02755 0.427487,-1.0657 1.13792,-2.46189 1.578769,-3.10265 0.440875,-0.64076 1.316064,-1.46653 1.944899,-1.83505 0.72943,-0.42747 1.851871,-0.76201 3.100414,-0.92408 4.238047,-0.61297 6.351852,0.0741 9.836432,-3.35095 1.12134,-1.10206 2.05642,-3.11899 1.2618,-5.11934 -0.43656,-1.09898 -0.40135,-1.97957 -0.3383,-2.30108 0.3253,-1.65865 4.93156,-2.36724 1.76721,-5.48719 -0.67228,-0.66285 -0.15517,-0.21574 1.23397,-1.30849 0.77487,-0.60946 1.35232,-1.42512 0.48257,-3.14158 -0.40494,-0.79909 -0.70578,-1.6839 -0.6571,-2.17017 0.23377,-2.33388 2.62315,-2.22964 3.76758,-2.88083 3.9926,-2.27181 -2.42951,-7.75806 -4.45134,-11.48402 -0.71048,-1.35417 -0.61827,-4.33476 -0.5217,-6.55068 0.0571,-1.309689 0.1097,-3.690939 0.11692,-5.291668 0.01,-2.212621 -0.13002,-3.449622 -0.58404,-5.159375 -0.32848,-1.236927 -1.0745,-3.340031 -1.65786,-4.673563 -0.58332,-1.333532 -1.61768,-3.321537 -2.29856,-4.417788 -0.68088,-1.09625 -2.10643,-3.009145 -3.167885,-4.25088 -1.061429,-1.241735 -2.961852,-3.063497 -4.223094,-4.048363 -1.261269,-0.984867 -3.234928,-2.281005 -4.385892,-2.880307 -1.15099,-0.5993 -1.984163,-1.156711 -1.851528,-1.238687 0.132636,-0.08198 1.307889,-0.342662 2.611623,-0.579297 1.303761,-0.236638 3.816641,-0.499922 5.58419,-0.585076 1.909207,-0.09198 4.424176,-0.02117 6.195666,0.174467 1.64005,0.181109 4.14277,0.610377 5.5616,0.953926 1.41882,0.343551 3.69093,1.061595 5.04915,1.595657 1.35818,0.534059 3.15806,1.315945 3.99973,1.737524 0.84164,0.421579 2.32992,1.254305 3.30729,1.850503 0.97734,0.596199 2.72953,1.827631 3.89369,2.736514 1.16417,0.908884 3.18823,2.769511 4.49792,4.134724 1.30969,1.365215 3.18124,3.612623 4.15904,4.99424 0.97779,1.381617 2.43369,3.821718 3.23532,5.422448 0.80164,1.600729 1.82325,4.04151 2.27023,5.423958 0.44699,1.382448 1.04154,3.585103 1.3212,4.894793 0.27969,1.30969 0.64577,3.83676 0.81351,5.61572 0.23072,2.44659 0.2303,4.15451 -0.003,7.01146 -0.1687,2.07734 -0.54742,4.96761 -0.84161,6.42282 -0.29417,1.45521 -0.94724,3.88324 -1.45124,5.39564 -0.50404,1.5124 -1.5176,3.95074 -2.2524,5.41853 -0.7348,1.4678 -2.18636,3.86179 -3.22564,5.31998 -1.03929,1.45819 -3.2039,3.9711 -4.81023,5.58424 -2.01981,2.02835 -3.81829,3.5244 -5.83105,4.85051 -1.60073,1.05464 -3.98198,2.43912 -5.29167,3.07662 -1.30969,0.6375 -3.81,1.63456 -5.55625,2.21569 -1.74625,0.58112 -4.24656,1.24356 -5.55625,1.47207 -1.30969,0.22851 -3.81,0.48707 -5.556251,0.57458 -1.841685,0.0923 -4.397189,0.0271 -6.085416,-0.15534 -1.600729,-0.17294 -4.03052,-0.59188 -5.415016,-0.85456 -1.24972,-0.23711 -1.752719,-0.41868 -2.308797,-0.25344 -0.555867,0.16517 -0.736553,0.74584 -1.547796,2.28556 -0.616983,1.17102 -1.856925,2.95959 -2.670148,4.02135 -0.81325,1.06175 -2.447634,2.80681 -3.631962,3.87791 -1.184354,1.0711 -3.082264,2.56879 -4.217591,3.3282 -1.135327,0.75941 -3.278452,1.95564 -4.7625,2.65828 -1.484047,0.70264 -3.293586,1.4764 -4.02119,1.71947 -0.727604,0.24307 -2.196597,0.61042 -3.264403,0.81634 -1.067831,0.20592 -2.47597,0.37441 -3.129227,0.37441 -1.190241,-0.0279 -2.819173,0.0588 -2.748893,-1.56244 z"
         id="path1"
         sodipodi:nodetypes="cszzzsscssscssssscsscsscssscsssssssssssssssssscssssssssssssssssssscscsssssssscssssssssssc" />
    </g>
    <path
       style="font-weight:800;font-size:96px;line-height:0;font-family:Manrope;-inkscape-font-specification:'Manrope Ultra-Bold';white-space:pre;fill:#111111;fill-opacity:1"
       d="m 188.24344,730.91296 v -62.31989 c 0,-2.30818 1.87116,-4.17934 4.17934,-4.17934 h 24.83908 c 0.0914,0 0.23971,-5e-5 0.33116,6.1e-4 0.59258,0.004 1.34214,0.031 2.24869,0.0801 0.15119,0.008 0.39644,0.0185 0.54775,0.0242 0.64799,0.0242 1.25399,0.0694 1.81802,0.13553 0.54327,0.0637 1.41865,0.20968 1.95624,0.31098 3.36685,0.63445 6.20296,1.77704 8.50833,3.42779 0.36174,0.25902 0.92864,0.70588 1.26731,0.99443 2.1365,1.82038 3.77622,4.02464 4.91917,6.61276 0.18122,0.41038 0.44873,1.08712 0.60045,1.50931 0.96442,2.68361 1.48858,5.62686 1.57247,8.82976 0.0133,0.50937 0.0134,1.3357 -3e-4,1.84505 -0.0862,3.2111 -0.62561,6.17292 -1.61829,8.88544 -0.15295,0.41793 -0.42122,1.08809 -0.60246,1.49454 -1.14281,2.56299 -2.78224,4.75351 -4.91831,6.57155 -0.33914,0.28864 -0.90656,0.73592 -1.26854,0.99533 -2.47389,1.77283 -5.54699,2.95949 -9.2193,3.55996 -0.11967,0.0196 -0.31412,0.0487 -0.43431,0.0648 -0.77052,0.10331 -1.63152,0.184 -2.583,0.24207 -0.14992,0.009 -0.39307,0.0226 -0.54306,0.0306 -0.41048,0.0218 -0.78602,0.0391 -1.12661,0.0522 -0.71202,0.0272 -1.86749,0.0291 -2.58007,0.0291 h -9.63608 c -2.87281,0 -5.20168,2.32887 -5.20168,5.20168 v 17.17784 c 0,0.57685 -0.46763,1.04448 -1.04448,1.04448 l -9.39075,0 c -1.44741,0 -2.62077,-1.17336 -2.62077,-2.62077 z m 17.62346,-32.99523 h 10.82203 c 0.0898,0 0.23527,6e-5 0.32502,-6.1e-4 0.57304,-0.004 1.19123,-0.0312 1.85457,-0.0806 0.10546,-0.008 0.2764,-0.0215 0.38169,-0.0313 0.56592,-0.0532 1.09898,-0.13926 1.59917,-0.25818 0.23217,-0.0552 0.60504,-0.15924 0.83278,-0.23057 1.42337,-0.44581 2.565,-1.11701 3.4249,-2.0136 0.13679,-0.14263 0.34349,-0.38777 0.46494,-0.54369 0.76393,-0.98066 1.31426,-2.04001 1.65099,-3.17806 0.0545,-0.1842 0.13377,-0.48547 0.18092,-0.67169 0.29679,-1.17209 0.45807,-2.28771 0.48385,-3.34687 0.004,-0.16606 0.004,-0.43544 -10e-6,-0.6015 -0.0283,-1.15758 -0.21903,-2.36933 -0.57231,-3.63525 -0.13815,-0.55259 -0.32312,-1.08299 -0.55491,-1.59122 -0.59939,-1.31421 -2.17537,-3.1531 -3.4409,-3.8412 -0.0289,-0.0157 -0.0579,-0.0313 -0.0871,-0.0467 -1.02917,-0.54335 -2.88044,-1.02959 -4.04018,-1.13362 -0.0734,-0.007 -0.21827,-0.0182 -0.32365,-0.026 -0.26509,-0.0198 -0.52297,-0.0359 -0.77363,-0.0485 -0.6862,-0.0344 -1.80063,-0.0328 -2.48776,-0.0328 H 203.0044 c -0.94162,0 -1.70496,0.76334 -1.70496,1.70496 v 15.03958 c 0,2.52254 2.04492,4.56746 4.56746,4.56746 z m 64.2991,37.03419 c -4.38161,-0.1528 -8.32225,-1.1084 -11.8219,-2.86681 -0.547,-0.27484 -1.41154,-0.76359 -1.93029,-1.08862 -3.26858,-2.04797 -5.92833,-4.69348 -7.97925,-7.93655 -0.32765,-0.51809 -0.82,-1.38217 -1.09713,-1.92895 -1.74046,-3.43402 -2.6933,-7.2674 -2.85853,-11.50014 -0.029,-0.74246 -0.0285,-1.94769 -0.005,-2.69035 0.15067,-4.66299 1.09301,-8.80573 2.82703,-12.42823 0.27008,-0.56421 0.74833,-1.45925 1.06535,-1.9985 1.99432,-3.39227 4.58623,-6.11929 7.77574,-8.18107 0.50886,-0.32893 1.35573,-0.82811 1.89039,-1.11318 3.36641,-1.79493 7.14577,-2.77512 11.33807,-2.94059 0.71199,-0.0281 1.86784,-0.0281 2.57985,-6.2e-4 4.46149,0.17209 8.3468,1.24798 11.65594,3.22766 0.51987,0.31101 1.33568,0.85954 1.821,1.22213 3.06094,2.28684 5.42396,5.30538 7.08905,9.0556 0.26964,0.60731 0.66373,1.61071 0.87911,2.2393 1.41368,4.12591 1.94173,8.86219 1.58415,14.20883 -0.0381,0.56921 -0.54165,1.0299 -1.11214,1.0299 H 282.3729 c -0.21208,0 -0.384,-0.17192 -0.384,-0.384 l 0,-3.17723 c 0,-0.68415 0.002,-1.79351 -0.0163,-2.4774 -0.11425,-4.24533 -0.8297,-7.43571 -2.14637,-9.57113 -0.19788,-0.32093 -0.55644,-0.81776 -0.80129,-1.10445 -1.51623,-1.77528 -3.76394,-2.75357 -6.74314,-2.93486 -0.57628,-0.0351 -1.5134,-0.0343 -2.09001,-0.005 -3.57792,0.18271 -6.33235,1.32428 -8.2633,3.4247 -0.30788,0.3349 -0.76,0.91965 -1.01084,1.29919 -1.62042,2.45176 -2.4951,5.83282 -2.62405,10.14318 -0.0188,0.62874 -0.0192,1.64898 0.003,2.27761 0.13999,3.91866 1.01606,7.06726 2.6282,9.44582 0.24823,0.36623 0.69449,0.92951 0.99745,1.25196 1.97233,2.09922 4.68267,3.20636 8.13101,3.32142 0.3353,0.0112 0.87945,0.0113 1.2147,-7.4e-4 2.10191,-0.0753 3.94392,-0.5461 5.52603,-1.4124 0.24791,-0.13574 0.63876,-0.37569 0.87211,-0.53517 0.75005,-0.51262 1.42118,-1.11585 2.0134,-1.80968 1.16853,-1.36903 3.14033,-2.35646 4.8762,-1.85868 l 8.74078,2.50655 c 0.64736,0.18564 0.9669,0.8424 0.68186,1.45249 -1.79317,3.83806 -4.38864,6.93033 -7.78639,9.2768 -0.5364,0.37044 -1.43406,0.92978 -2.00108,1.25141 -3.55421,2.01601 -7.38738,3.11703 -11.49951,3.30306 -0.69685,0.0315 -1.82847,0.0309 -2.52563,0.007 z m -15.9211,-24.46587 0,-6.17088 c 0,-1.51847 1.23097,-2.74944 2.74944,-2.74944 h 30.84288 c 0.4284,0 0.77568,0.34728 0.77568,0.77568 l 0,6.17088 c 0,1.51847 -1.23097,2.74944 -2.74944,2.74944 h -30.84288 c -0.4284,0 -0.77568,-0.34728 -0.77568,-0.77568 z m 51.45598,18.90048 v -43.27809 c 0,-2.43818 1.97653,-4.41471 4.41471,-4.41471 l 6.09153,0 c 0.55988,0 1.01376,0.45388 1.01376,1.01376 v 11.49388 c 0,0.0908 -0.0447,0.10591 -0.0998,0.0338 l -0.86995,-1.13763 c -0.15365,-0.20093 -0.20672,-0.55603 -0.11263,-0.79082 0.59468,-1.48401 1.34747,-2.85509 2.25836,-4.11324 0.14349,-0.1982 0.38362,-0.5141 0.53778,-0.70411 0.99597,-1.22768 2.18035,-2.26694 3.55314,-3.1178 0.16514,-0.10235 0.43508,-0.26475 0.60281,-0.36278 1.06248,-0.62095 2.20386,-1.11791 3.42413,-1.4909 0.195,-0.0596 0.51224,-0.15264 0.7084,-0.2083 1.24262,-0.35258 2.51908,-0.58103 3.8294,-0.68536 0.20774,-0.0165 0.54477,-0.0406 0.75272,-0.0542 1.11912,-0.0731 2.23824,-0.0647 3.35736,0.0253 0.53691,0.0431 0.97032,0.53507 0.97032,1.07375 l 0,9.28638 c 0,1.06605 -0.82953,1.66207 -1.88631,1.53325 -0.83822,-0.10218 -1.73943,-0.12458 -2.70362,-0.0672 -0.24876,0.0148 -0.65172,0.0452 -0.89981,0.0688 -1.56447,0.14858 -3.00439,0.51228 -4.31979,1.09108 -0.20387,0.0897 -0.53094,0.243 -0.7305,0.34193 -1.25971,0.62447 -2.34961,1.41875 -3.2697,2.38283 -0.14298,0.14982 -0.36826,0.39894 -0.50279,0.55638 -0.85319,0.99843 -1.5255,2.15511 -2.01695,3.47005 -0.0774,0.20716 -0.19389,0.5464 -0.25987,0.75748 -0.27536,0.88104 -0.46839,1.82504 -0.57907,2.83201 -0.12785,1.16308 -0.11159,3.06469 -0.11159,4.23536 v 23.32416 c 0,0.58109 -0.47107,1.05216 -1.05216,1.05216 l -7.95264,0 c -2.29044,0 -4.1472,-1.85676 -4.1472,-4.1472 z m 58.69574,5.55894 c -5.32191,-0.19807 -9.7612,-1.43717 -13.31787,-3.7173 -0.55183,-0.35377 -1.40874,-0.98474 -1.90926,-1.40803 -3.20001,-2.70618 -5.25769,-6.29824 -6.17305,-10.77619 -0.11942,-0.58418 0.28488,-1.13443 0.87446,-1.2235 l 9.4897,-1.4337 c 1.5391,-0.23252 3.01752,0.84933 3.74257,2.22151 0.5556,1.05151 1.29011,1.95902 2.20351,2.72254 0.23767,0.19866 0.64286,0.49635 0.90334,0.66396 1.6815,1.08198 3.72533,1.66137 6.1315,1.73817 0.30798,0.01 0.80774,0.01 1.11574,2e-4 1.91846,-0.0603 3.4521,-0.4375 4.6009,-1.13163 0.17663,-0.10673 0.44979,-0.30089 0.60813,-0.43325 1.02457,-0.8564 1.56467,-1.97927 1.6203,-3.36859 0.005,-0.13353 0.005,-0.35026 -1.3e-4,-0.4837 -0.0342,-0.82654 -0.24652,-1.50831 -0.63707,-2.0453 -0.0664,-0.0913 -0.18285,-0.23295 -0.26118,-0.31422 -0.51341,-0.53266 -1.47371,-1.05415 -2.8809,-1.56447 -0.24204,-0.0878 -0.63713,-0.22254 -0.88138,-0.30385 -1.59074,-0.52954 -3.86333,-1.19105 -6.81777,-1.98453 -0.55025,-0.14778 -1.44431,-0.38033 -1.99426,-0.52944 -3.44466,-0.93396 -6.28733,-1.95879 -8.52798,-3.0745 -0.33498,-0.1668 -0.8711,-0.45125 -1.19574,-0.6374 -2.02721,-1.16239 -3.5585,-2.50511 -4.59388,-4.02817 -0.1639,-0.24109 -0.40673,-0.6471 -0.54297,-0.90484 -0.84428,-1.59733 -1.3126,-3.45247 -1.40494,-5.56542 -0.0191,-0.43604 -0.0189,-1.14412 -7.3e-4,-1.58021 0.11387,-2.73276 0.82497,-5.15001 2.1333,-7.25173 0.20912,-0.33593 0.57494,-0.86363 0.81467,-1.17845 1.513,-1.98695 3.50882,-3.56967 5.98748,-4.74817 0.4072,-0.19361 1.07924,-0.48228 1.49967,-0.64519 2.68804,-1.04157 5.76209,-1.6063 9.22215,-1.69419 0.53363,-0.0136 1.39927,-0.0135 1.9329,-1.7e-4 3.35567,0.084 6.38311,0.60936 9.08232,1.57617 0.41754,0.14956 1.08601,0.41539 1.4922,0.59351 2.55183,1.11898 4.6749,2.61032 6.36919,4.47401 0.26811,0.29492 0.68419,0.78989 0.92788,1.10528 1.47387,1.90747 2.46084,4.08429 2.96092,6.53046 0.11996,0.58681 -0.2929,1.15455 -0.88248,1.26059 l -8.82041,1.5864 c -1.90873,0.3433 -3.5444,-1.08037 -4.67407,-2.62994 -0.27021,-0.37063 -0.58319,-0.71312 -0.93896,-1.02746 -0.18225,-0.16103 -0.49405,-0.40317 -0.69447,-0.54089 -1.28186,-0.88081 -2.92694,-1.43245 -4.93524,-1.65492 -0.31169,-0.0345 -0.81901,-0.0712 -1.13242,-0.0824 -1.96224,-0.0702 -3.5942,0.20128 -4.89587,0.81444 -0.19323,0.091 -0.49743,0.25755 -0.67682,0.3735 -1.15567,0.747 -1.76345,1.76187 -1.82331,3.0446 -0.005,0.11734 -0.006,0.30782 9.3e-4,0.42492 0.0405,0.72737 0.29211,1.35476 0.75475,1.88219 0.0806,0.0919 0.22305,0.23026 0.31761,0.30776 0.62078,0.50878 1.69708,1.02868 3.22891,1.55968 0.27141,0.0941 0.71449,0.23774 0.98871,0.32338 1.80707,0.5643 4.33899,1.26452 7.59576,2.10064 0.51479,0.13216 1.34966,0.34574 1.86201,0.48721 3.20838,0.88589 5.86097,1.89654 7.95777,3.03197 0.31662,0.17145 0.82406,0.46044 1.13204,0.64698 1.93013,1.16906 3.39628,2.54181 4.39846,4.11826 0.15542,0.24448 0.38862,0.65266 0.52082,0.91045 0.76159,1.48521 1.20826,3.20198 1.33999,5.15032 0.0467,0.69075 0.0459,1.81484 0.004,2.50595 -0.25764,4.30246 -1.86566,7.80594 -4.82407,10.51043 -0.48107,0.43978 -1.31151,1.09611 -1.84893,1.46492 -3.4353,2.35745 -7.91644,3.63494 -13.44344,3.83248 -0.8516,0.0304 -2.23386,0.0305 -3.08546,-0.001 z m 55.88729,0.006 c -4.29723,-0.15704 -8.14249,-1.13892 -11.53579,-2.94563 -0.53286,-0.28371 -1.37505,-0.7837 -1.88071,-1.11348 -3.18715,-2.07857 -5.76579,-4.77692 -7.73593,-8.09504 -0.31603,-0.53224 -0.78834,-1.41843 -1.05337,-1.97781 -1.67978,-3.54536 -2.59354,-7.51879 -2.74128,-11.92028 -0.0238,-0.70957 -0.0238,-1.8611 1.3e-4,-2.57065 0.15055,-4.45519 1.0916,-8.44737 2.82314,-11.97655 0.27241,-0.55521 0.75239,-1.43623 1.06924,-1.96734 1.99489,-3.3438 4.58772,-6.04454 7.77849,-8.10221 0.50755,-0.32731 1.35312,-0.82233 1.88764,-1.10342 3.37989,-1.77742 7.17604,-2.74483 11.38845,-2.90222 0.68422,-0.0256 1.79485,-0.0255 2.47909,-5.1e-4 4.29483,0.15695 8.1382,1.13782 11.53012,2.94261 0.53607,0.28523 1.38411,0.78664 1.89375,1.1168 3.21459,2.08249 5.80834,4.7971 7.78127,8.14381 0.31344,0.53169 0.78709,1.41386 1.05603,1.96937 1.70535,3.52246 2.63263,7.4847 2.78182,11.88672 0.0239,0.70566 0.0239,1.85086 -4e-5,2.55652 -0.15076,4.43855 -1.09412,8.4355 -2.83011,11.99084 -0.26902,0.55095 -0.74214,1.42587 -1.05521,1.95304 -1.9739,3.3239 -4.5693,6.0263 -7.7862,8.1072 -0.50734,0.32818 -1.35267,0.82455 -1.8876,1.1055 -3.38816,1.77951 -7.2161,2.7471 -11.48383,2.90277 -0.68424,0.025 -1.79486,0.025 -2.4791,-4e-5 z m 2.22505,-12.1966 c 3.36905,-0.18878 5.98534,-1.36625 7.84888,-3.53242 0.30518,-0.35474 0.75173,-0.96978 1.00485,-1.36343 1.60212,-2.49159 2.47525,-5.54395 2.61939,-9.15707 0.024,-0.60055 0.0239,-1.57554 0.001,-2.17615 -0.14217,-3.75259 -1.03208,-6.84807 -2.66973,-9.28645 -0.25229,-0.37564 -0.69674,-0.96088 -0.99685,-1.29951 -1.94058,-2.18965 -4.64706,-3.35011 -8.11946,-3.48138 -0.37186,-0.0141 -0.97549,-0.014 -1.34737,-2.7e-4 -2.32471,0.0861 -4.28778,0.62417 -5.8892,1.61433 -0.25042,0.15484 -0.64144,0.42946 -0.87396,0.6101 -1.46823,1.14065 -2.60976,2.63053 -3.42459,4.46964 -0.13135,0.29646 -0.32096,0.78708 -0.42563,1.09399 -0.63331,1.85711 -0.99239,3.94784 -1.07724,6.27217 -0.0221,0.60471 -0.0221,1.58626 2.8e-4,2.19096 0.13998,3.77624 1.01593,6.88445 2.62786,9.32462 0.24899,0.37692 0.69442,0.95988 0.99779,1.29459 1.89967,2.09585 4.48397,3.23771 7.75291,3.42557 0.54358,0.0312 1.42734,0.0312 1.97097,7.1e-4 z m 71.20658,7.54358 v -20.95424 c 0,-0.16033 1e-4,-0.42029 -0.001,-0.58061 -0.009,-1.03427 -0.062,-2.29288 -0.16033,-3.77586 -0.0163,-0.24626 -0.0437,-0.64552 -0.0664,-0.89128 -0.1441,-1.55929 -0.48019,-3.11857 -1.00825,-4.67786 -0.0835,-0.24649 -0.22666,-0.64354 -0.32538,-0.8843 -0.62268,-1.51852 -1.55032,-2.82244 -2.7829,-3.91177 -0.19501,-0.17234 -0.52108,-0.44086 -0.73278,-0.59217 -1.4255,-1.01887 -3.35499,-1.54636 -5.78845,-1.58247 -0.14927,-0.002 -0.39137,-0.002 -0.54064,0.001 -0.95077,0.0236 -1.95791,0.17125 -3.0214,0.44286 -0.17066,0.0436 -0.44619,0.11898 -0.61392,0.17269 -1.06402,0.3407 -2.07163,0.91829 -3.02284,1.73276 -0.1521,0.13024 -0.39369,0.34737 -0.53661,0.48761 -0.91249,0.89532 -1.69024,2.12749 -2.33326,3.69648 -0.10627,0.25929 -0.26357,0.68573 -0.34783,0.95299 -0.55096,1.74762 -0.84721,3.95837 -0.88872,6.63225 -0.006,0.36612 -0.27328,0.53576 -0.60412,0.37882 l -6.00506,-2.84856 c -0.48817,-0.23156 -0.88565,-0.85742 -0.86793,-1.3974 0.11186,-3.40723 0.81111,-6.63372 2.09777,-9.67947 0.20274,-0.47992 0.55822,-1.24664 0.79759,-1.70936 1.50733,-2.91373 3.59996,-5.34346 6.27789,-7.28918 0.43232,-0.31412 1.15568,-0.79226 1.61777,-1.06059 2.99575,-1.73958 6.62512,-2.66953 10.88811,-2.78987 0.53053,-0.015 1.39128,-0.015 1.92182,-2e-4 3.31848,0.0926 6.1045,0.67241 8.35805,1.73934 0.34501,0.16335 0.89035,0.45687 1.22037,0.64876 2.07268,1.20512 3.73906,2.66983 4.99913,4.39412 0.19894,0.27224 0.50425,0.726 0.68714,1.00929 1.15609,1.7907 2.01742,3.64941 2.58401,5.57614 0.0872,0.29657 0.21555,0.78113 0.29169,1.08073 0.47984,1.88809 0.78936,3.63992 0.92856,5.2555 0.0211,0.24443 0.0477,0.64136 0.0636,0.8862 0.032,0.49095 0.0593,0.94408 0.0818,1.35936 0.0697,1.28314 0.0807,3.3672 0.0807,4.65239 l 0,25.70112 c 0,0.58533 -0.47451,1.05984 -1.05984,1.05984 l -8.95271,0 c -1.78689,0 -3.23545,-1.44856 -3.23545,-3.23545 z m -35.424,-0.91175 v -46.76352 c 0,-0.51323 0.41605,-0.92928 0.92928,-0.92928 l 7.65241,0 c 1.6758,0 3.03431,1.35851 3.03431,3.03431 l 0,14.01913 c 0,0.0721 0.0584,0.13056 0.13056,0.13056 0.82923,0 1.50144,1.24128 1.50144,2.77248 l 0,30.82368 c 0,0.58533 -0.47451,1.05984 -1.05984,1.05984 h -8.04096 c -2.29044,0 -4.1472,-1.85676 -4.1472,-4.1472 z m 74.67184,5.57368 c -3.04764,-0.0948 -5.6989,-0.68785 -7.95376,-1.77926 -0.3476,-0.16825 -0.89586,-0.47145 -1.22484,-0.67373 -2.06779,-1.27142 -3.70696,-2.86995 -4.91748,-4.7956 -0.1924,-0.30606 -0.47769,-0.8185 -0.63807,-1.1425 -1.03013,-2.081 -1.58246,-4.3368 -1.657,-6.76741 -0.01,-0.31578 -0.01,-0.82815 -0.002,-1.14399 0.0495,-1.989 0.35887,-3.83109 0.92817,-5.52628 0.0891,-0.26525 0.24672,-0.69084 0.354,-0.94926 0.67616,-1.62879 1.6663,-3.08937 2.97042,-4.38176 0.21504,-0.2131 0.57607,-0.546 0.80645,-0.74241 1.51458,-1.29126 3.4469,-2.39156 5.79696,-3.30088 0.25595,-0.099 0.6737,-0.25233 0.9328,-0.34282 1.65901,-0.57948 3.57668,-1.10273 5.75299,-1.56975 0.35484,-0.0761 0.93135,-0.19405 1.28734,-0.26478 2.27449,-0.45189 4.79652,-0.88128 7.56608,-1.28817 0.44927,-0.066 1.17764,-0.17334 1.62657,-0.24168 3.0204,-0.4598 6.30383,-0.95717 9.85029,-1.49212 0.23464,-0.0354 0.25638,0.0288 0.0485,0.14328 l -3.6955,2.0363 c -0.34914,0.19238 -0.63037,0.025 -0.64631,-0.37327 -0.0989,-2.46937 -0.71644,-4.36364 -1.85273,-5.68281 -0.1797,-0.20863 -0.4997,-0.52169 -0.71347,-0.69536 -1.42659,-1.15896 -3.61237,-1.7669 -6.55735,-1.82381 -0.2553,-0.005 -0.66946,-0.005 -0.92466,0.005 -1.62354,0.0624 -3.30353,0.45212 -5.03997,1.16927 -0.27651,0.11419 -0.72027,0.31094 -0.98491,0.45036 -0.64143,0.33793 -1.21739,0.7514 -1.72787,1.24042 -1.6276,1.5592 -3.91093,2.90962 -6.07955,2.22201 l -6.86292,-2.17605 c -0.56247,-0.17834 -0.88114,-0.78149 -0.68144,-1.33668 1.25536,-3.49009 3.32156,-6.41709 6.19861,-8.781 0.46379,-0.38107 1.24535,-0.96274 1.74942,-1.28856 3.29463,-2.12954 7.56217,-3.26245 12.80263,-3.39871 0.60092,-0.0156 1.57578,-0.0155 2.17675,-4.5e-4 3.77972,0.0947 7.19727,0.68745 10.25266,1.77814 0.47293,0.16882 1.23073,0.46792 1.68682,0.67792 2.9888,1.37617 5.31533,3.53727 6.97957,6.48329 0.14086,0.24936 0.35852,0.65965 0.48631,0.91593 0.80372,1.61174 1.3143,3.22347 1.53173,4.83521 0.0345,0.2557 0.0755,0.67211 0.0987,0.92909 0.0972,1.07646 0.16535,2.22076 0.20441,3.43293 0.0451,1.39891 0.0394,3.66866 0.0394,5.06837 v 27.36473 c 0,0.98355 -0.79732,1.78087 -1.78087,1.78087 h -8.79065 c -0.47081,0 -0.85248,-0.38167 -0.85248,-0.85248 v -9.58387 c 0,-0.12131 0.0584,-0.14057 0.13056,-0.043 l 0.89432,1.20996 c 0.3353,0.45365 0.34003,1.19274 -0.004,1.64009 -2.15376,2.80386 -4.45459,4.92891 -6.90249,6.37515 -0.3789,0.22386 -1.00972,0.55842 -1.40873,0.74405 -2.59319,1.20644 -5.75782,1.85311 -9.49389,1.94 -0.48601,0.0113 -1.2744,0.0117 -1.76031,-0.003 z m 4.23276,-10.26647 c 1.96344,-0.0559 3.65619,-0.40501 5.07825,-1.04738 0.22396,-0.10117 0.57824,-0.28394 0.79372,-0.40214 1.35207,-0.7417 2.45517,-1.56261 3.3093,-2.46274 0.1318,-0.1389 0.33891,-0.37028 0.46604,-0.51349 0.7284,-0.82057 1.26498,-1.53564 1.60974,-2.14521 0.10221,-0.18071 0.24748,-0.48475 0.33007,-0.67527 0.5251,-1.21128 0.84751,-2.58021 0.96722,-4.10678 0.0193,-0.24664 0.0427,-0.64709 0.0585,-0.89398 0.0986,-1.53774 0.15232,-2.8512 0.16119,-3.94038 0.001,-0.17487 0.13886,-0.28226 0.30852,-0.23984 l 2.63285,0.65821 c 0.49703,0.12426 0.49018,0.29266 -0.0152,0.37675 -3.16554,0.52669 -5.8078,0.98512 -7.92679,1.37531 -0.3127,0.0576 -0.82005,0.14884 -1.13315,0.20416 -1.95949,0.34617 -3.58962,0.66963 -4.89039,0.97037 -0.19375,0.0448 -0.50736,0.11974 -0.70042,0.16749 -1.19815,0.29636 -2.27511,0.61474 -3.23086,0.95517 -0.17009,0.0606 -0.44327,0.16583 -0.60983,0.23554 -1.04941,0.43924 -1.92737,0.91276 -2.63387,1.42058 -0.10235,0.0736 -0.26552,0.19665 -0.36417,0.27509 -0.62065,0.4935 -1.10524,1.03235 -1.45377,1.61656 -0.0534,0.0896 -0.13177,0.23944 -0.1747,0.33447 -0.26246,0.58093 -0.40931,1.2144 -0.44056,1.90043 -0.007,0.15511 -0.007,0.40701 -8.1e-4,0.56216 0.0387,0.97367 0.28093,1.83431 0.72661,2.5819 0.0699,0.11724 0.19669,0.29878 0.28239,0.405 0.54205,0.67194 1.25288,1.20886 2.13248,1.61076 0.14291,0.0653 0.37863,0.16226 0.5261,0.21647 0.88774,0.32631 1.90585,0.51222 3.05434,0.55772 0.31381,0.0124 0.82323,0.012 1.13718,0.003 z"
       id="text1"
       transform="matrix(0.22513169,0,0,0.2292523,13.336354,24.683023)"
       aria-label="Persona"
       inkscape:path-effect="#path-effect1"
       inkscape:original-d="m 188.24344,733.53373 v -69.12 h 29.184 c 0.672,0 1.568,0.032 2.688,0.096 1.152,0.032 2.176,0.128 3.072,0.288 4.128,0.64 7.504,2 10.128,4.08 2.656,2.08 4.608,4.704 5.856,7.872 1.248,3.136 1.872,6.64 1.872,10.512 0,3.872 -0.64,7.392 -1.92,10.56 -1.248,3.136 -3.2,5.744 -5.856,7.824 -2.624,2.08 -5.984,3.44 -10.08,4.08 -0.896,0.128 -1.92,0.224 -3.072,0.288 -1.152,0.064 -2.048,0.096 -2.688,0.096 h -16.128 v 23.424 z m 13.056,-35.616 h 15.552 c 0.672,0 1.408,-0.032 2.208,-0.096 0.8,-0.064 1.536,-0.192 2.208,-0.384 1.76,-0.48 3.12,-1.28 4.08,-2.4 0.96,-1.152 1.616,-2.416 1.968,-3.792 0.384,-1.408 0.576,-2.736 0.576,-3.984 0,-1.248 -0.192,-2.56 -0.576,-3.936 -0.352,-1.408 -1.008,-2.672 -1.968,-3.792 -0.96,-1.152 -2.32,-1.968 -4.08,-2.448 -0.672,-0.192 -1.408,-0.32 -2.208,-0.384 -0.8,-0.064 -1.536,-0.096 -2.208,-0.096 h -15.552 z m 70.12946,37.056 c -5.312,0 -10,-1.136 -14.064,-3.408 -4.032,-2.304 -7.2,-5.456 -9.504,-9.456 -2.272,-4.032 -3.408,-8.64 -3.408,-13.824 0,-5.664 1.12,-10.592 3.36,-14.784 2.24,-4.192 5.328,-7.44 9.264,-9.744 3.936,-2.336 8.464,-3.504 13.584,-3.504 5.44,0 10.064,1.28 13.872,3.84 3.808,2.56 6.624,6.16 8.448,10.8 1.824,4.64 2.464,10.096 1.92,16.368 h -12.912 v -4.8 c 0,-5.28 -0.848,-9.072 -2.544,-11.376 -1.664,-2.336 -4.4,-3.504 -8.208,-3.504 -4.448,0 -7.728,1.36 -9.84,4.08 -2.08,2.688 -3.12,6.672 -3.12,11.952 0,4.832 1.04,8.576 3.12,11.232 2.112,2.624 5.2,3.936 9.264,3.936 2.56,0 4.752,-0.56 6.576,-1.68 1.824,-1.12 3.216,-2.736 4.176,-4.848 l 13.056,3.744 c -1.952,4.736 -5.04,8.416 -9.264,11.04 -4.192,2.624 -8.784,3.936 -13.776,3.936 z m -17.184,-23.712 v -9.696 h 34.368 v 9.696 z m 51.45598,22.272 v -51.84 h 11.52 v 12.672 l -1.248,-1.632 c 0.672,-1.792 1.568,-3.424 2.688,-4.896 1.12,-1.472 2.496,-2.688 4.128,-3.648 1.248,-0.768 2.608,-1.36 4.08,-1.776 1.472,-0.448 2.992,-0.72 4.56,-0.816 1.568,-0.128 3.136,-0.096 4.704,0.096 v 12.192 c -1.44,-0.448 -3.12,-0.592 -5.04,-0.432 -1.888,0.128 -3.6,0.56 -5.136,1.296 -1.536,0.704 -2.832,1.648 -3.888,2.832 -1.056,1.152 -1.856,2.528 -2.4,4.128 -0.544,1.568 -0.816,3.344 -0.816,5.328 v 26.496 z m 60.2385,1.44 c -6.528,0 -11.808,-1.472 -15.84,-4.416 -4,-2.976 -6.432,-7.168 -7.296,-12.576 l 13.344,-2.016 c 0.544,2.432 1.744,4.336 3.6,5.712 1.888,1.376 4.272,2.064 7.152,2.064 2.368,0 4.192,-0.448 5.472,-1.344 1.28,-0.928 1.92,-2.208 1.92,-3.84 0,-1.024 -0.256,-1.84 -0.768,-2.448 -0.512,-0.64 -1.664,-1.264 -3.456,-1.872 -1.76,-0.608 -4.512,-1.408 -8.256,-2.4 -4.224,-1.088 -7.6,-2.304 -10.128,-3.648 -2.528,-1.344 -4.352,-2.944 -5.472,-4.8 -1.12,-1.888 -1.68,-4.16 -1.68,-6.816 0,-3.328 0.848,-6.208 2.544,-8.64 1.696,-2.464 4.08,-4.352 7.152,-5.664 3.104,-1.344 6.752,-2.016 10.944,-2.016 4.064,0 7.664,0.624 10.8,1.872 3.136,1.248 5.664,3.024 7.584,5.328 1.952,2.304 3.152,5.024 3.6,8.16 l -13.344,2.4 c -0.224,-1.92 -1.056,-3.44 -2.496,-4.56 -1.44,-1.12 -3.392,-1.776 -5.856,-1.968 -2.4,-0.16 -4.336,0.16 -5.808,0.96 -1.44,0.8 -2.16,1.952 -2.16,3.456 0,0.896 0.304,1.648 0.912,2.256 0.64,0.608 1.936,1.232 3.888,1.872 1.984,0.64 4.992,1.472 9.024,2.496 3.936,1.024 7.088,2.224 9.456,3.6 2.4,1.344 4.144,2.976 5.232,4.896 1.088,1.888 1.632,4.176 1.632,6.864 0,5.312 -1.92,9.488 -5.76,12.528 -3.84,3.04 -9.152,4.56 -15.936,4.56 z m 55.58408,0 c -5.216,0 -9.792,-1.168 -13.728,-3.504 -3.936,-2.336 -7.008,-5.552 -9.216,-9.648 -2.176,-4.128 -3.264,-8.864 -3.264,-14.208 0,-5.408 1.12,-10.16 3.36,-14.256 2.24,-4.128 5.328,-7.344 9.264,-9.648 3.936,-2.304 8.464,-3.456 13.584,-3.456 5.216,0 9.792,1.168 13.728,3.504 3.968,2.336 7.056,5.568 9.264,9.696 2.208,4.096 3.312,8.816 3.312,14.16 0,5.376 -1.12,10.128 -3.36,14.256 -2.208,4.096 -5.296,7.312 -9.264,9.648 -3.936,2.304 -8.496,3.456 -13.68,3.456 z m 0,-12.192 c 4.192,0 7.312,-1.408 9.36,-4.224 2.08,-2.848 3.12,-6.496 3.12,-10.944 0,-4.608 -1.056,-8.288 -3.168,-11.04 -2.08,-2.752 -5.184,-4.128 -9.312,-4.128 -2.848,0 -5.184,0.64 -7.008,1.92 -1.824,1.28 -3.184,3.056 -4.08,5.328 -0.864,2.272 -1.296,4.912 -1.296,7.92 0,4.64 1.04,8.336 3.12,11.088 2.112,2.72 5.2,4.08 9.264,4.08 z m 72.19208,10.752 v -24.48 c 0,-1.184 -0.064,-2.688 -0.192,-4.512 -0.128,-1.856 -0.528,-3.712 -1.2,-5.568 -0.672,-1.856 -1.776,-3.408 -3.312,-4.656 -1.504,-1.248 -3.648,-1.872 -6.432,-1.872 -1.12,0 -2.32,0.176 -3.6,0.528 -1.28,0.352 -2.48,1.04 -3.6,2.064 -1.12,0.992 -2.048,2.464 -2.784,4.416 -0.704,1.952 -1.056,4.544 -1.056,7.776 l -7.488,-3.552 c 0,-4.096 0.832,-7.936 2.496,-11.52 1.664,-3.584 4.16,-6.48 7.488,-8.688 3.36,-2.208 7.584,-3.312 12.672,-3.312 4.064,0 7.376,0.688 9.936,2.064 2.56,1.376 4.544,3.12 5.952,5.232 1.44,2.112 2.464,4.32 3.072,6.624 0.608,2.272 0.976,4.352 1.104,6.24 0.128,1.888 0.192,3.264 0.192,4.128 v 29.088 z m -35.424,0 v -51.84 h 11.616 v 17.184 h 1.632 v 34.656 z m 75.55197,1.44 c -3.712,0 -6.864,-0.704 -9.456,-2.112 -2.56,-1.44 -4.512,-3.344 -5.856,-5.712 -1.312,-2.4 -1.968,-5.04 -1.968,-7.92 0,-2.4 0.368,-4.592 1.104,-6.576 0.736,-1.984 1.92,-3.728 3.552,-5.232 1.664,-1.536 3.888,-2.816 6.672,-3.84 1.92,-0.704 4.208,-1.328 6.864,-1.872 2.656,-0.544 5.664,-1.056 9.024,-1.536 3.36,-0.512 7.056,-1.072 11.088,-1.68 l -4.704,2.592 c 0,-3.072 -0.736,-5.328 -2.208,-6.768 -1.472,-1.44 -3.936,-2.16 -7.392,-2.16 -1.92,0 -3.92,0.464 -6,1.392 -2.08,0.928 -3.536,2.576 -4.368,4.944 l -11.808,-3.744 c 1.312,-4.288 3.776,-7.776 7.392,-10.464 3.616,-2.688 8.544,-4.032 14.784,-4.032 4.576,0 8.64,0.704 12.192,2.112 3.552,1.408 6.24,3.84 8.064,7.296 1.024,1.92 1.632,3.84 1.824,5.76 0.192,1.92 0.288,4.064 0.288,6.432 v 31.68 h -11.424 v -10.656 l 1.632,2.208 c -2.528,3.488 -5.264,6.016 -8.208,7.584 -2.912,1.536 -6.608,2.304 -11.088,2.304 z m 2.784,-10.272 c 2.4,0 4.416,-0.416 6.048,-1.248 1.664,-0.864 2.976,-1.84 3.936,-2.928 0.992,-1.088 1.664,-2 2.016,-2.736 0.672,-1.408 1.056,-3.04 1.152,-4.896 0.128,-1.888 0.192,-3.456 0.192,-4.704 l 3.84,0.96 c -3.872,0.64 -7.008,1.184 -9.408,1.632 -2.4,0.416 -4.336,0.8 -5.808,1.152 -1.472,0.352 -2.768,0.736 -3.888,1.152 -1.28,0.512 -2.32,1.072 -3.12,1.68 -0.768,0.576 -1.344,1.216 -1.728,1.92 -0.352,0.704 -0.528,1.488 -0.528,2.352 0,1.184 0.288,2.208 0.864,3.072 0.608,0.832 1.456,1.472 2.544,1.92 1.088,0.448 2.384,0.672 3.888,0.672 z"
       sodipodi:nodetypes="ccsccccscccssccccsscccscccssccsccsscsssccscscscsscccsccccccccccscccccccccsccsccccscscccscsccsscccsccscccccssssscscssccsccsscscsscscscscscssccccscssccsscccccccccsccssccscccsssccssscsscccccsscccccccscccscss" />
  </g>
</svg>
